<svg width="32" height="32" viewBox="4 0 32 32" fill="none" xmlns="http://www.w3.org/2000/svg" aria-label="Diligent">
  <path d="M34.2702 15.9789C34.2702 20.8942 32.5182 24.9439 29.523 27.7432C29.4886 27.7735 29.4627 27.8054 29.4282 27.8358C27.2005 29.8809 24.2959 31.24 20.9141 31.7596L20.6855 31.5251L25.7259 2.32436L25.9156 1.79028C31.0753 4.32898 34.2702 9.39624 34.2702 15.9789Z" fill="#EE312E"/>
  <path d="M25.9168 1.79175L5.40039 17.1079V31.4759V31.9999H17.7548C18.8485 31.9999 19.902 31.916 20.9152 31.7596C20.9152 31.7611 25.9168 1.79175 25.9168 1.79175Z" fill="#D3222A"/>
  <path d="M25.9168 1.79185L25.7745 2.00461L5.50675 17.2078L5.40039 17.108C5.40039 17.108 5.40039 17.1036 5.40039 17.0993V0H17.7074C18.5568 0 19.3803 0.0492107 20.1779 0.146185H20.2081C22.2231 0.386449 24.0786 0.914741 25.7386 1.70645C25.8047 1.7383 25.9168 1.79185 25.9168 1.79185Z" fill="#AF292E"/>
</svg>
