<svg width="36" height="36" viewBox="0 0 36 36" fill="none" xmlns="http://www.w3.org/2000/svg">
<path d="M0 12C0 5.37258 5.37258 0 12 0H24C30.6274 0 36 5.37258 36 12V24C36 30.6274 30.6274 36 24 36H12C5.37258 36 0 30.6274 0 24V12Z" fill="white"/>
<path d="M27.1621 23.688C27.0801 23.8059 26.9953 23.9213 26.9082 24.0366C26.6312 24.4008 26.329 24.7476 26.0059 25.0708C24.5692 26.5074 22.7008 27.511 20.6074 27.8599L13.0938 20.3452L15.4492 17.9878H15.4512L15.4541 17.9849L27.1621 23.688Z" fill="#D3222A"/>
<path d="M27.0889 12.2124C28.2535 13.8465 28.9365 15.8447 28.9365 17.9995C28.9365 20.1157 28.2824 22.0735 27.1641 23.687L15.4551 17.9839L27.0889 12.2124Z" fill="#EE312E"/>
<path d="M20.6074 27.8579C20.0638 27.9502 19.5048 27.9995 18.9355 27.9995H10.7617L11.9551 21.48L13.0938 20.3442L20.6074 27.8579Z" fill="#AF292E"/>
<path d="M14.4663 18.0004L11.9998 19.2294L10.7623 21.7002L9.52903 19.2294L7.0625 18.0004L9.52903 16.7629L10.7623 14.2964L10.7749 14.3174L11.9998 16.7629L14.4663 18.0004Z" fill="#1E1E1E"/>
<path d="M20.6064 8.14111C23.1025 8.55935 25.2858 9.90367 26.7891 11.8071C26.8941 11.9404 26.9941 12.074 27.0889 12.2124L15.4551 17.9839H15.4492L13.1074 15.6392L20.6064 8.14111Z" fill="#D3222A"/>
<path d="M18.9355 8C19.5049 8.00002 20.0617 8.04829 20.6055 8.14062L13.1064 15.6396L11.9443 14.4775L10.7617 8H18.9355Z" fill="#AF292E"/>
<path d="M16.7223 17.9996L11.6152 12.8926V14.5949L14.5943 17.9996L11.6152 20.9787V23.1066L16.7223 17.9996Z" fill="#F8F8FA"/>
<path d="M16.7223 17.9996L11.6152 12.8926V14.5949L14.5943 17.9996L11.6152 20.9787V23.1066L16.7223 17.9996Z" fill="#F8F8FA"/>
<path d="M16.7223 17.9996L11.6152 12.8926V14.5949L14.5943 17.9996L11.6152 20.9787V23.1066L16.7223 17.9996Z" fill="#F8F8FA"/>
<path d="M16.7223 17.9996L11.6152 12.8926V14.5949L14.5943 17.9996L11.6152 20.9787V23.1066L16.7223 17.9996Z" fill="#F8F8FA"/>
<path d="M16.7227 18L11.6152 23.1064V20.9785L14.5947 18L11.6152 14.5947V12.8926L16.7227 18Z" fill="#F8F8FA"/>
</svg>
